<svg height="100%" width="100%" id="bg-svg" viewBox="0 0 1440 500" xmlns="http://www.w3.org/2000/svg" class="transition duration-300 ease-in-out delay-150"><path d="M 0,500 C 0,500 0,166 0,166 C 73.79904306220098,198.33492822966508 147.59808612440196,230.66985645933013 239,226 C 330.40191387559804,221.33014354066987 439.4066985645933,179.65550239234452 550,157 C 660.5933014354067,134.34449760765548 772.7751196172248,130.70813397129183 868,145 C 963.2248803827752,159.29186602870817 1041.4928229665072,191.51196172248805 1134,198 C 1226.5071770334928,204.48803827751195 1333.2535885167463,185.24401913875596 1440,166 C 1440,166 1440,500 1440,500 Z" stroke="none" stroke-width="0" fill="#27303688" class="transition-all duration-300 ease-in-out delay-150"></path><path d="M 0,500 C 0,500 0,333 0,333 C 71.7416267942584,351.14354066985646 143.4832535885168,369.2870813397129 234,353 C 324.5167464114832,336.7129186602871 433.80861244019127,285.9952153110048 547,282 C 660.1913875598087,278.0047846889952 777.2822966507179,320.73205741626793 869,345 C 960.7177033492821,369.26794258373207 1027.0622009569377,375.07655502392345 1118,370 C 1208.9377990430623,364.92344497607655 1324.468899521531,348.9617224880383 1440,333 C 1440,333 1440,500 1440,500 Z" stroke="none" stroke-width="0" fill="#273036ff" class="transition-all duration-300 ease-in-out delay-150"></path></svg>
